:SAMPLES-PER-SECOND 30
:FULLY-SPECIFIED
:DEGREES
49
root  -35.9031 19.6833 0.330282 44.1146 83.2927 -2.05933
RightUpLeg  -16.7589 -4.71862 -6.7332
RightLeg  69.1917 8.08016 -8.01477
RightFoot  -0.452998 -0.156429 1.40193
RightToes  1.86264e-009 -3.18055e-015 8.94531e-016
Spine  48.9536 0.226405 -5.15468
Spine1  -10.2568 -2.04977 -2.33144
HEad  -64.1763 6.90446 1.69745
LeftShoulder1  0 -2.69403e-036 -1.28585e-037
LeftArm  4.36368 -46.5227 -68.6764
LeftForeArm  -2.82567 -34.5412 23.4398
LeftHand  -1.62953 0.905576 28.4819
RightShoulder  -2.48481e-017 0 -8.08114e-019
RightArm  8.44482 21.7681 97.5224
RightForeArm  28.856 11.4181 -0.0615249
RightHand  9.52318 -21.6863 -48.1929
LeftUpLeg  -59.7688 -4.35142 -2.99227
LeftLeg  118.198 -10.949 -5.52556
LeftFoot  -24.0564 -1.21185 -12.1783
LeftToes  -3.27418e-010 -1.10613e-010 -1.08532e-012
50
root  -35.0919 19.8333 0.11925 37.0664 82.4939 -10.6038
RightUpLeg  -20.9194 -4.25572 -6.22504
RightLeg  73.2544 9.59327 -4.37659
RightFoot  1.49061 -0.123099 0.956448
RightToes  1.86264e-009 -3.18055e-015 8.94531e-016
Spine  49.5442 1.55691 -6.10086
Spine1  -12.6726 -1.26176 0.2787
HEad  -64.6264 7.42477 0.00114696
LeftShoulder1  0 -2.69403e-036 -1.28585e-037
LeftArm  -1.24913 -54.993 -67.0799
LeftForeArm  3.01617 -23.9057 16.4061
LeftHand  -1.68134 0.711751 28.148
RightShoulder  -2.48481e-017 0 -8.08114e-019
RightArm  9.7468 19.876 97.4008
RightForeArm  29.4473 11.3 0.386671
RightHand  9.72508 -21.8176 -48.8706
LeftUpLeg  -58.7057 -3.9857 -2.76125
LeftLeg  116.147 -10.4768 -6.75578
LeftFoot  -24.2621 -1.11364 -10.9212
LeftToes  -3.27418e-010 -1.10613e-010 -1.08532e-012
51
root  -34.2287 19.9794 -0.17736 28.4769 81.808 -20.2156
RightUpLeg  -25.7089 -3.56433 -5.48435
RightLeg  79.3746 10.7686 -0.249606
RightFoot  1.36547 -0.0671846 0.521788
RightToes  1.86264e-009 -3.18055e-015 8.94531e-016
Spine  50.0909 2.32401 -5.8886
Spine1  -14.0566 -0.408939 2.12708
HEad  -65.3397 7.71505 -1.89324
LeftShoulder1  0 -2.69403e-036 -1.28585e-037
LeftArm  -12.3849 -61.9737 -63.6145
LeftForeArm  10.2885 -14.1999 10.1272
LeftHand  -1.40139 0.91408 24.9687
RightShoulder  -2.48481e-017 0 -8.08114e-019
RightArm  10.9154 18.635 96.9815
RightForeArm  30.2887 10.9289 1.00721
RightHand  10.0071 -22.0219 -49.7212
LeftUpLeg  -57.1018 -3.88571 -2.3338
LeftLeg  114.059 -10.1888 -7.82455
LeftFoot  -24.3098 -0.99225 -9.61
LeftToes  -3.27418e-010 -1.10613e-010 -1.08532e-012
52
root  -33.3264 20.0945 -0.520339 22.8287 81.4887 -26.4058
RightUpLeg  -30.8356 -3.04273 -4.99569
RightLeg  86.1649 11.0175 1.29142
RightFoot  0.977694 -0.11147 0.898192
RightToes  1.86264e-009 -3.18055e-015 8.94531e-016
Spine  50.7832 2.51577 -5.12578
Spine1  -14.9667 0.130773 3.55197
HEad  -65.7683 8.05488 -3.50136
LeftShoulder1  0 -2.69403e-036 -1.28585e-037
LeftArm  -16.6455 -66.5671 -60.7427
LeftForeArm  9.10128 -6.03456 8.01475
LeftHand  -0.947853 1.34303 20.0212
RightShoulder  -2.48481e-017 0 -8.08114e-019
RightArm  11.2184 17.5045 96.4209
RightForeArm  32.1489 10.2686 1.73443
RightHand  10.266 -22.1956 -50.5234
LeftUpLeg  -54.8792 -4.53004 -2.20114
LeftLeg  111.669 -10.1025 -8.71803
LeftFoot  -24.2583 -0.861059 -8.28477
LeftToes  -3.27418e-010 -1.10613e-010 -1.08532e-012
53
root  -32.3903 20.1475 -0.871426 20.121 81.474 -29.3885
RightUpLeg  -36.2332 -2.58047 -4.92125
RightLeg  92.9422 10.9589 1.48317
RightFoot  1.17132 -0.130729 1.0519
RightToes  1.86264e-009 -3.18055e-015 8.94531e-016
Spine  51.3965 2.60561 -4.60264
Spine1  -15.631 0.469058 5.16004
HEad  -65.9344 8.7064 -4.6927
LeftShoulder1  0 -2.69403e-036 -1.28585e-037
LeftArm  -15.1592 -68.9027 -61.0558
LeftForeArm  5.29213 -0.0484511 6.76809
LeftHand  -0.696378 1.75514 18.0369
RightShoulder  -2.48481e-017 0 -8.08114e-019
RightArm  12.4044 16.3506 95.6721
RightForeArm  32.8697 9.90476 2.28159
RightHand  10.4707 -22.308 -51.2214
LeftUpLeg  -52.2167 -5.61351 -2.52218
LeftLeg  109.01 -10.179 -9.48411
LeftFoot  -24.2882 -0.707557 -6.65998
LeftToes  -3.27418e-010 -1.10613e-010 -1.08532e-012
54
root  -31.4034 20.1161 -1.22133 17.2445 81.7883 -32.3937
RightUpLeg  -41.7092 -1.98217 -4.79848
RightLeg  99.6912 10.4913 3.38254
RightFoot  0.995345 0.0968732 -0.789202
RightToes  1.86264e-009 -3.18055e-015 8.94531e-016
Spine  51.7584 2.56293 -3.85396
Spine1  -15.9693 0.811215 6.61916
HEad  -66.1587 9.20798 -5.68436
LeftShoulder1  0 -2.69403e-036 -1.28585e-037
LeftArm  -11.9675 -69.3372 -64.5171
LeftForeArm  3.39951 1.98074 5.74333
LeftHand  -0.802015 2.03121 21.4781
RightShoulder  -2.48481e-017 0 -8.08114e-019
RightArm  13.7805 15.0925 94.5288
RightForeArm  32.5108 9.67962 2.72672
RightHand  10.73 -22.4778 -51.9922
LeftUpLeg  -49.2137 -6.94242 -2.78236
LeftLeg  106.211 -10.3652 -10.1863
LeftFoot  -24.5399 -0.543417 -4.8271
LeftToes  -3.27418e-010 -1.10613e-010 -1.08532e-012
55
root  -30.3712 20.0161 -1.54736 12.6182 82.5871 -36.8352
RightUpLeg  -46.9289 -1.41006 -4.4242
RightLeg  106.085 9.24428 6.57821
RightFoot  -0.257669 0.416247 -3.72872
RightToes  1.86264e-009 -3.18055e-015 8.94531e-016
Spine  51.9602 2.22224 -2.21636
Spine1  -16.1136 1.28656 7.40847
HEad  -66.0378 8.81546 -6.49439
LeftShoulder1  0 -2.69403e-036 -1.28585e-037
LeftArm  -7.25028 -68.2553 -70.2848
LeftForeArm  2.15777 1.413 4.8252
LeftHand  -1.14983 1.93602 27.2321
RightShoulder  -2.48481e-017 0 -8.08114e-019
RightArm  14.8408 13.213 92.565
RightForeArm  31.9448 9.56638 3.06307
RightHand  10.8971 -22.6598 -52.2474
LeftUpLeg  -45.7164 -8.67367 -2.6868
LeftLeg  103.28 -10.6145 -10.9762
LeftFoot  -24.8747 -0.352829 -2.7781
LeftToes  -3.27418e-010 -1.10613e-010 -1.08532e-012
56
root  -29.3328 19.9184 -1.80806 5.43369 83.8441 -42.9748
RightUpLeg  -51.3332 -1.06114 -3.96335
RightLeg  111.622 7.87242 8.53314
RightFoot  -1.78881 0.523401 -5.24034
RightToes  1.86264e-009 -3.18055e-015 8.94531e-016
Spine  52.5116 1.83961 0.0979348
Spine1  -16.2389 2.00154 7.74702
HEad  -64.9463 7.47524 -6.95547
LeftShoulder1  0 -2.69403e-036 -1.28585e-037
LeftArm  -1.229 -66.361 -78.1654
LeftForeArm  1.29652 1.1154 3.79622
LeftHand  -1.54517 1.50047 31.0708
RightShoulder  -2.48481e-017 0 -8.08114e-019
RightArm  21.0724 10.3481 89.4946
RightForeArm  26.2316 11.4797 2.05199
RightHand  10.4963 -22.4757 -50.8188
LeftUpLeg  -41.2472 -10.6738 -2.34371
LeftLeg  100.218 -10.8836 -12.2373
LeftFoot  -25.2557 -0.166616 -0.887641
LeftToes  -3.27418e-010 -1.10613e-010 -1.08532e-012
57
root  -28.3253 19.8843 -2.01627 -10.7916 85.0816 -56.7739
RightUpLeg  -54.301 -0.784256 -3.22856
RightLeg  116.251 6.91326 8.9792
RightFoot  -3.13765 0.46227 -5.24567
RightToes  1.86264e-009 -3.18055e-015 8.94531e-016
Spine  53.9953 1.30549 2.75112
Spine1  -15.9369 2.69322 7.91744
HEad  -63.5017 6.07096 -7.14226
LeftShoulder1  0 -2.69403e-036 -1.28585e-037
LeftArm  5.04186 -64.4726 -86.7587
LeftForeArm  1.26059 0.976989 3.33096
LeftHand  -1.85649 1.03641 32.736
RightShoulder  -2.48481e-017 0 -8.08114e-019
RightArm  36.7343 6.71925 85.8919
RightForeArm  9.25616 16.1168 -3.36624
RightHand  9.23959 -21.4646 -47.3259
LeftUpLeg  -35.3858 -12.5249 -1.68899
LeftLeg  97.0765 -11.2514 -13.8769
LeftFoot  -25.6363 -0.026165 0.463529
LeftToes  -3.27418e-010 -1.10613e-010 -1.08532e-012
58
root  -27.3693 19.8567 -2.1702 -37.0605 85.8111 -80.0385
RightUpLeg  -56.4805 -0.539273 -2.24687
RightLeg  120.235 6.0908 9.13264
RightFoot  -4.95358 0.414562 -5.83659
RightToes  1.86264e-009 -3.18055e-015 8.94531e-016
Spine  55.5018 0.299133 4.83559
Spine1  -14.6664 2.60693 8.2722
HEad  -62.9054 5.53294 -7.25561
LeftShoulder1  0 -2.69403e-036 -1.28585e-037
LeftArm  9.07974 -62.7623 -92.818
LeftForeArm  2.18901 0.983853 3.38952
LeftHand  -2.12234 0.713453 34.4197
RightShoulder  -2.48481e-017 0 -8.08114e-019
RightArm  53.166 2.64114 82.9117
RightForeArm  -12.5441 19.4157 -13.4344
RightHand  7.41756 -19.5594 -42.557
LeftUpLeg  -29.0541 -14.2709 -1.00098
LeftLeg  93.9562 -11.8117 -15.2258
LeftFoot  -25.7991 0.0625703 1.28036
LeftToes  -3.27418e-010 -1.10613e-010 -1.08532e-012
59
root  -26.4556 19.7466 -2.21781 -62.8168 85.7965 -103.313
RightUpLeg  -58.7014 -0.270071 -1.01937
RightLeg  123.355 5.58195 8.98779
RightFoot  -6.10061 0.45486 -7.341
RightToes  1.86264e-009 -3.18055e-015 8.94531e-016
Spine  56.1762 -0.854344 5.48012
Spine1  -13.0986 1.64715 8.92312
HEad  -63.0092 5.8825 -7.22936
LeftShoulder1  0 -2.69403e-036 -1.28585e-037
LeftArm  8.87379 -60.6936 -94.1125
LeftForeArm  4.10526 0.979888 3.45696
LeftHand  -2.3861 0.505673 36.667
RightShoulder  -2.48481e-017 0 -8.08114e-019
RightArm  54.9672 -1.63972 81.0124
RightForeArm  -20.29 21.0727 -21.2577
RightHand  5.79911 -17.5521 -37.9781
LeftUpLeg  -23.2998 -15.8188 -0.552331
LeftLeg  90.9074 -12.5064 -15.9238
LeftFoot  -25.8699 0.0894782 1.51937
LeftToes  -3.27418e-010 -1.10613e-010 -1.08532e-012
60
root  -25.5619 19.5445 -2.16198 -78.824 85.1347 -117.531
RightUpLeg  -60.6485 0.153678 0.679739
RightLeg  125.167 5.69173 8.32823
RightFoot  -3.6029 0.675166 -8.04425
RightToes  1.86264e-009 -3.18055e-015 8.94531e-016
Spine  56.4778 -1.64448 5.16973
Spine1  -12.5847 0.688417 9.35471
HEad  -62.494 6.41723 -6.87626
LeftShoulder1  0 -2.69403e-036 -1.28585e-037
LeftArm  5.96834 -57.6881 -92.5978
LeftForeArm  6.70629 0.862717 3.18935
LeftHand  -2.61453 0.308461 38.3815
RightShoulder  -2.48481e-017 0 -8.08114e-019
RightArm  45.0597 -5.96193 79.605
RightForeArm  -13.4475 24.2294 -24.8401
RightHand  4.9964 -16.5123 -35.1084
LeftUpLeg  -18.1958 -16.5935 -0.0603104
LeftLeg  87.8543 -13.247 -16.0243
LeftFoot  -26.1357 0.086358 1.46681
LeftToes  -3.27418e-010 -1.10613e-010 -1.08532e-012
61
root  -24.6828 19.2924 -2.07758 -87.05 84.0797 -124.599
RightUpLeg  -61.6735 0.401908 2.50242
RightLeg  125.847 5.60279 8.2636
RightFoot  2.46294 0.993353 -7.32948
RightToes  1.86264e-009 -3.18055e-015 8.94531e-016
Spine  56.5977 -2.22539 5.10284
Spine1  -13.2385 0.227516 9.15197
HEad  -60.9677 6.57636 -6.3436
LeftShoulder1  0 -2.69403e-036 -1.28585e-037
LeftArm  3.45577 -54.2199 -92.0119
LeftForeArm  9.55172 0.701607 2.80609
LeftHand  -2.80632 0.0972811 39.4272
RightShoulder  -2.48481e-017 0 -8.08114e-019
RightArm  36.2173 -9.20624 78.0471
RightForeArm  -6.22589 28.3169 -27.8923
RightHand  4.95153 -16.5565 -34.4655
LeftUpLeg  -13.8681 -16.7254 0.781905
LeftLeg  84.8318 -13.942 -15.6653
LeftFoot  -26.5039 0.0692294 1.28663
LeftToes  -3.27418e-010 -1.10613e-010 -1.08532e-012
62
root  -23.8148 19.0147 -1.98129 -95.2503 82.9474 -132.575
RightUpLeg  -61.7074 0.148457 3.69894
RightLeg  126.022 4.34706 9.86919
RightFoot  7.65395 1.20152 -6.54316
RightToes  1.86264e-009 -3.18055e-015 8.94531e-016
Spine  55.8656 -2.88572 5.63695
Spine1  -13.859 -0.0999199 8.75106
HEad  -59.5659 6.29449 -5.88124
LeftShoulder1  0 -2.69403e-036 -1.28585e-037
LeftArm  1.84848 -51.0675 -93.1573
LeftForeArm  12.6144 0.599433 2.65674
LeftHand  -3.01381 -0.0955773 40.6998
RightShoulder  -2.48481e-017 0 -8.08114e-019
RightArm  30.016 -9.58736 76.3036
RightForeArm  -3.88106 32.4428 -31.2063
RightHand  5.17184 -16.9155 -35.0501
LeftUpLeg  -10.8415 -17.2154 1.831
LeftLeg  81.9103 -14.5145 -14.9014
LeftFoot  -26.5388 0.0279018 0.922876
LeftToes  -3.27418e-010 -1.10613e-010 -1.08532e-012
